{"title":"Teen Wolf Season 4 EP1 The Dark Moon WEB-DL","uid":10425012,"size":466141932,"categoryP":"video","categoryS":"tv_shows","magnet":"?xt=urn:btih:e018a9e1e80e8bf3021f2baf31c312a125383b25&amp;dn=Teen+Wolf+Season+4+EP1+The+Dark+Moon+WEB-DL&amp;tr=udp%3A%2F%2Ftracker.openbittorrent.com%3A80&amp;tr=udp%3A%2F%2Fopen.demonii.com%3A1337&amp;tr=udp%3A%2F%2Ftracker.coppersurfer.tk%3A6969&amp;tr=udp%3A%2F%2Fexodus.desync.com%3A6969","seeders":11,"leechers":1,"uploader":"jmanwf","files":-1,"time":1403688221,"description":"Scott and his Pack journey into Mexico to rescue a missing friend\n\n\n\nFormat : MPEG-4\nFormat profile : Base Media / Version 2\nCodec ID : mp42\nFile size : 431 MiB\nDuration : 42mn 5s\nOverall bit rate mode : Variable\nOverall bit rate : 1 432 Kbps\nMovie name : The Dark Moon\nAlbum : Teen Wolf, Season 4\nPerformer : Teen Wolf\nGenre : Sci-Fi &amp; Fantasy\nDescription : Scott and his Pack journey into Mexico to rescue a missing friend\nRecorded date : UTC 2014-06-23 07:00:00\nEncoded date : UTC 2014-06-25 05:43:20\nTagged date : UTC 2014-06-25 06:10:23\nWriting application : HandBrake 0.9.9 2013052900\nCover : Yes\nLongDescription : Scott and his Pack journey into Mexico to rescue a missing friend\n\nVideo\nID : 1\nFormat : AVC\nFormat/Info : Advanced Video Codec\nFormat profile : &lt;a class=&quot;__cf_email__&quot; href=&quot;/cdn-cgi/l/email-protection&quot; data-cfemail=&quot;367b575f58767a021806&quot;&gt;[email&amp;#160;protected]&lt;/a&gt;&lt;script cf-hash='f9e31' type=&quot;text/javascript&quot;&gt;\n/* &lt;![CDATA[ */!function(){try{var t=&quot;currentScript&quot;in document?document.currentScript:function(){for(var t=document.getElementsByTagName(&quot;script&quot;),e=t.length;e--;)if(t[e].getAttribute(&quot;cf-hash&quot;))return t[e]}();if(t&amp;&amp;t.previousSibling){var e,r,n,i,c=t.previousSibling,a=c.getAttribute(&quot;data-cfemail&quot;);if(a){for(e=&quot;&quot;,r=parseInt(a.substr(0,2),16),n=2;a.length-n;n+=2)i=parseInt(a.substr(n,2),16)^r,e+=String.fromCharCode(i);e=document.createTextNode(e),c.parentNode.replaceChild(e,c)}}}catch(u){}}();/* ]]&gt; */&lt;/script&gt;\nFormat settings, CABAC : Yes\nFormat settings, ReFrames : 4 frames\nCodec ID : avc1\nCodec ID/Info : Advanced Video Coding\nDuration : 42mn 4s\nBit rate : 1 316 Kbps\nWidth : 960 pixels\nHeight : 540 pixels\nDisplay aspect ratio : 16:9\nFrame rate mode : Variable\nFrame rate : 23.976 fps\nMinimum frame rate : 23.974 fps\nMaximum frame rate : 23.981 fps\nColor space : YUV\nChroma subsampling : 4:2:0\nBit depth : 8 bits\nScan type : Progressive\nBits/(Pixel*Frame) : 0.106\nStream size : 396 MiB (92%)\nWriting library : x264 core 130 r2273 b3065e6\nEncoded date : UTC 2014-06-25 05:43:20\nTagged date : UTC 2014-06-25 06:10:23\nColor primaries : BT.709\nTransfer characteristics : BT.709\nMatrix coefficients : BT.709\n\nAudio\nID : 2\nFormat : AAC\nFormat/Info : Advanced Audio Codec\nFormat profile : LC\nCodec ID : 40\nDuration : 42mn 5s\nBit rate mode : Variable\nBit rate : 112 Kbps\nMaximum bit rate : 219 Kbps\nChannel(s) : 2 channels\nChannel positions : Front: L R\nSampling rate : 48.0 KHz\nCompression mode : Lossy\nStream size : 33.7 MiB (8%)\nLanguage : English\nEncoded date : UTC 2014-06-25 05:43:20\nTagged date : UTC 2014-06-25 06:10:21","torrent":{"xt":"urn:btih:e018a9e1e80e8bf3021f2baf31c312a125383b25","amp;dn":"Teen+Wolf+Season+4+EP1+The+Dark+Moon+WEB-DL","amp;tr":["udp%3A%2F%2Ftracker.openbittorrent.com%3A80","udp%3A%2F%2Fopen.demonii.com%3A1337","udp%3A%2F%2Ftracker.coppersurfer.tk%3A6969","udp%3A%2F%2Fexodus.desync.com%3A6969"],"infoHash":"e018a9e1e80e8bf3021f2baf31c312a125383b25","infoHashBuffer":{"type":"Buffer","data":[224,24,169,225,232,14,139,243,2,31,43,175,49,195,18,161,37,56,59,37]},"announce":[],"urlList":[]}}